<svg xmlns="http://www.w3.org/2000/svg" width="369" height="72" viewBox="0 0 369 72"><g class="mcremote_setBuildOrigin blocklyBlock mcremote blocklyDraggable" transform="translate(8 8)" style="fill: rgb(0, 0, 0); stroke: none; stroke-width: 1px; font-family: &quot;Helvetica Neue&quot;, Helvetica, Arial, sans-serif; font-size: 16px; font-weight: 400; font-style: normal; opacity: 1; paint-order: normal;"><path class="blocklyPath" stroke="#0b8e69" fill="#0fbd8c" d=" m 0,0  m 0,4 a 4 4 0 0,1 4,-4  h 8  c 2,0  3,1  4,2  l 4,4  c 1,1  2,2  4,2  h 12  c 2,0  3,-1  4,-2  l 4,-4  c 1,-1  2,-2  4,-2  h 300.2109375 a 4 4 0 0,1 4,4  v 8  V 40  V 44  V 44 a 4 4 0 0,1 -4,4  h -300.2109375  c -2,0  -3,1  -4,2  l -4,4  c -1,1  -2,2  -4,2  h -12  c -2,0  -3,-1  -4,-2  l -4,-4  c -1,-1  -2,-2  -4,-2  h -8 a 4 4 0 0,1 -4,-4 z&#10;" style="fill: rgb(15, 189, 140); stroke: rgb(11, 142, 105); stroke-width: 1px; font-family: &quot;Helvetica Neue&quot;, Helvetica, Arial, sans-serif; font-size: 16px; font-weight: 400; font-style: normal; opacity: 1; paint-order: normal;"/><g class="math_number blocklyBlock textField blocklyShadow" style="display: block; fill: rgb(0, 0, 0); stroke: none; stroke-width: 1px; font-family: &quot;Helvetica Neue&quot;, Helvetica, Arial, sans-serif; font-size: 16px; font-weight: 400; font-style: normal; opacity: 1; paint-order: normal;" transform="translate(156.140625, 8)"><path class="blocklyPath" stroke="#0b8e69" fill="#fff" d=" m 16,0  h 16.6953125 a 16 16 0 0,1 16,16  v 0 a 16 16 0 0,1 -16,16  V 32  h -16.6953125 a 16 16 0 0,1 -16,-16  v 0 a 16 16 0 0,1 16,-16 z&#10;" style="fill: rgb(255, 255, 255); stroke: rgb(11, 142, 105); stroke-width: 1px; font-family: &quot;Helvetica Neue&quot;, Helvetica, Arial, sans-serif; font-size: 16px; font-weight: 400; font-style: normal; opacity: 1; paint-order: normal;"/><g class="blocklyField blocklyInputField blocklyTextInputField blocklyEditableField" transform="translate(11,7)" style="fill: rgb(0, 0, 0); stroke: none; stroke-width: 1px; font-family: &quot;Helvetica Neue&quot;, Helvetica, Arial, sans-serif; font-size: 16px; font-weight: 400; font-style: normal; opacity: 1; paint-order: normal;"><rect rx="4" ry="4" x="0" y="0" height="18" width="26.6953125" class="blocklyFieldRect" style="display: none; fill: rgb(255, 255, 255); stroke: none; stroke-width: 1px; font-family: &quot;Helvetica Neue&quot;, Helvetica, Arial, sans-serif; font-size: 16px; font-weight: 400; font-style: normal; opacity: 1; paint-order: normal;"/><text class="blocklyText blocklyFieldText" dominant-baseline="central" x="0" y="9" style="fill: rgb(87, 94, 117); stroke: none; stroke-width: 1px; font-family: &quot;Helvetica Neue&quot;, &quot;Segoe UI&quot;, Helvetica, sans-serif; font-size: 16px; font-weight: 500; font-style: normal; opacity: 1; paint-order: normal;">200</text></g></g><g class="math_number blocklyBlock textField blocklyShadow" style="display: block; fill: rgb(0, 0, 0); stroke: none; stroke-width: 1px; font-family: &quot;Helvetica Neue&quot;, Helvetica, Arial, sans-serif; font-size: 16px; font-weight: 400; font-style: normal; opacity: 1; paint-order: normal;" transform="translate(239.515625, 8)"><path class="blocklyPath" stroke="#0b8e69" fill="#fff" d=" m 16,0  h 16.6953125 a 16 16 0 0,1 16,16  v 0 a 16 16 0 0,1 -16,16  V 32  h -16.6953125 a 16 16 0 0,1 -16,-16  v 0 a 16 16 0 0,1 16,-16 z&#10;" style="fill: rgb(255, 255, 255); stroke: rgb(11, 142, 105); stroke-width: 1px; font-family: &quot;Helvetica Neue&quot;, Helvetica, Arial, sans-serif; font-size: 16px; font-weight: 400; font-style: normal; opacity: 1; paint-order: normal;"/><g class="blocklyField blocklyInputField blocklyTextInputField blocklyEditableField" transform="translate(11,7)" style="fill: rgb(0, 0, 0); stroke: none; stroke-width: 1px; font-family: &quot;Helvetica Neue&quot;, Helvetica, Arial, sans-serif; font-size: 16px; font-weight: 400; font-style: normal; opacity: 1; paint-order: normal;"><rect rx="4" ry="4" x="0" y="0" height="18" width="26.6953125" class="blocklyFieldRect" style="display: none; fill: rgb(255, 255, 255); stroke: none; stroke-width: 1px; font-family: &quot;Helvetica Neue&quot;, Helvetica, Arial, sans-serif; font-size: 16px; font-weight: 400; font-style: normal; opacity: 1; paint-order: normal;"/><text class="blocklyText blocklyFieldText" dominant-baseline="central" x="0" y="9" style="fill: rgb(87, 94, 117); stroke: none; stroke-width: 1px; font-family: &quot;Helvetica Neue&quot;, &quot;Segoe UI&quot;, Helvetica, sans-serif; font-size: 16px; font-weight: 500; font-style: normal; opacity: 1; paint-order: normal;">200</text></g></g><g class="blocklyLabelField" transform="translate(8,15)" style="fill: rgb(0, 0, 0); stroke: none; stroke-width: 1px; font-family: &quot;Helvetica Neue&quot;, Helvetica, Arial, sans-serif; font-size: 16px; font-weight: 400; font-style: normal; opacity: 1; paint-order: normal;"><text class="blocklyText blocklyFieldText" dominant-baseline="central" x="0" y="9" style="fill: rgb(255, 255, 255); stroke: none; stroke-width: 1px; font-family: &quot;Helvetica Neue&quot;, &quot;Segoe UI&quot;, Helvetica, sans-serif; font-size: 16px; font-weight: 500; font-style: normal; opacity: 1; paint-order: normal;">建築原点 (x, y, z) を</text></g><g class="blocklyLabelField" transform="translate(204.8359375,15)" style="fill: rgb(0, 0, 0); stroke: none; stroke-width: 1px; font-family: &quot;Helvetica Neue&quot;, Helvetica, Arial, sans-serif; font-size: 16px; font-weight: 400; font-style: normal; opacity: 1; paint-order: normal;"><text class="blocklyText blocklyFieldText" dominant-baseline="central" x="0" y="9" style="fill: rgb(255, 255, 255); stroke: none; stroke-width: 1px; font-family: &quot;Helvetica Neue&quot;, &quot;Segoe UI&quot;, Helvetica, sans-serif; font-size: 16px; font-weight: 500; font-style: normal; opacity: 1; paint-order: normal;">,  0,</text></g><g class="blocklyLabelField" transform="translate(296.2109375,15)" style="fill: rgb(0, 0, 0); stroke: none; stroke-width: 1px; font-family: &quot;Helvetica Neue&quot;, Helvetica, Arial, sans-serif; font-size: 16px; font-weight: 400; font-style: normal; opacity: 1; paint-order: normal;"><text class="blocklyText blocklyFieldText" dominant-baseline="central" x="0" y="9" style="fill: rgb(255, 255, 255); stroke: none; stroke-width: 1px; font-family: &quot;Helvetica Neue&quot;, &quot;Segoe UI&quot;, Helvetica, sans-serif; font-size: 16px; font-weight: 500; font-style: normal; opacity: 1; paint-order: normal;">にする</text></g><path class="blocklyHighlightedConnectionPath" style="display: none; fill: none; stroke: rgb(255, 255, 255); stroke-width: 4px; font-family: &quot;Helvetica Neue&quot;, Helvetica, Arial, sans-serif; font-size: 16px; font-weight: 400; font-style: normal; opacity: 1; paint-order: normal;" d=" m -8,0  h 8  c 2,0  3,1  4,2  l 4,4  c 1,1  2,2  4,2  h 12  c 2,0  3,-1  4,-2  l 4,-4  c 1,-1  2,-2  4,-2  h 8 " transform="translate(12, 0)"/><path class="blocklyHighlightedConnectionPath" style="display: none; fill: none; stroke: rgb(255, 255, 255); stroke-width: 4px; font-family: &quot;Helvetica Neue&quot;, Helvetica, Arial, sans-serif; font-size: 16px; font-weight: 400; font-style: normal; opacity: 1; paint-order: normal;" d=" M 15.5,-18  h 17.6953125 a 18 18 0 0,1 18,18  v 0 a 18 18 0 0,1 -18,18  h -17.6953125 a 18 18 0 0,1 -18,-18  v 0 a 18 18 0 0,1 18,-18 z" transform="translate(156.140625, 24)"/><path class="blocklyHighlightedConnectionPath" style="display: none; fill: none; stroke: rgb(255, 255, 255); stroke-width: 4px; font-family: &quot;Helvetica Neue&quot;, Helvetica, Arial, sans-serif; font-size: 16px; font-weight: 400; font-style: normal; opacity: 1; paint-order: normal;" d=" M 15.5,-18  h 17.6953125 a 18 18 0 0,1 18,18  v 0 a 18 18 0 0,1 -18,18  h -17.6953125 a 18 18 0 0,1 -18,-18  v 0 a 18 18 0 0,1 18,-18 z" transform="translate(239.515625, 24)"/><path class="blocklyHighlightedConnectionPath" style="display: none; fill: none; stroke: rgb(255, 255, 255); stroke-width: 4px; font-family: &quot;Helvetica Neue&quot;, Helvetica, Arial, sans-serif; font-size: 16px; font-weight: 400; font-style: normal; opacity: 1; paint-order: normal;" d=" m -8,0  h 8  c 2,0  3,1  4,2  l 4,4  c 1,1  2,2  4,2  h 12  c 2,0  3,-1  4,-2  l 4,-4  c 1,-1  2,-2  4,-2  h 8 " transform="translate(12, 48)"/></g></svg>